<svg width="24" height="25" viewBox="0 0 24 25" fill="none" xmlns="http://www.w3.org/2000/svg">
<g id="heartbreak 1">
<path id="Vector" d="M11.672 16.6225L13.617 13.7249L11.024 10.9548C11.024 10.9548 13.616 8.0018 13.617 7.99985C13.652 7.9551 13.2706 6.91011 13.113 6.58611C12.6518 5.63939 11.962 4.789 11.0415 4.25775C9.7922 3.5358 8.21208 3.47742 6.85574 3.91137C3.52326 4.98457 2.33622 8.61283 3.35202 11.7887C4.98858 16.8774 12.0009 20.6954 12.0009 20.6954C12.0009 20.6954 19.0667 16.818 20.6488 11.7887C21.6655 8.61283 20.4688 4.98457 17.1363 3.91137C16.2324 3.62726 15.2876 3.57569 14.3808 3.74207" stroke="#222222" stroke-width="1.5" stroke-linecap="round" stroke-linejoin="round"/>
</g>
</svg>
