<svg width="40" height="40" viewBox="0 0 40 40" fill="none" xmlns="http://www.w3.org/2000/svg">
<path fill-rule="evenodd" clip-rule="evenodd" d="M20.3633 11C25.3342 11 29.3633 15.0291 29.3633 20C29.3633 24.9709 25.3342 29 20.3633 29C15.3924 29 11.3633 24.9709 11.3633 20C11.3633 15.0291 15.3924 11 20.3633 11Z" stroke="#222222" stroke-width="1.5" stroke-linecap="round" stroke-linejoin="round"/>
<path fill-rule="evenodd" clip-rule="evenodd" d="M20.3655 11C22.2161 11 23.7155 15.0291 23.7155 20C23.7155 24.9709 22.2161 29 20.3655 29C18.5149 29 17.0156 24.9709 17.0156 20C17.0156 15.0291 18.5149 11 20.3655 11Z" stroke="#222222" stroke-width="1.5" stroke-linecap="round" stroke-linejoin="round"/>
<path d="M12.3789 15.8438C13.8958 16.3117 15.544 16.6299 17.2389 16.808C19.2987 17.024 21.4247 17.024 23.4942 16.808C25.1891 16.6299 26.8373 16.3117 28.3542 15.8438" stroke="#222222" stroke-width="1.5" stroke-linecap="round" stroke-linejoin="round"/>
<path d="M28.3542 24.1536C26.8373 23.6856 25.1891 23.3674 23.4942 23.1893C21.4247 22.9733 19.2987 22.9733 17.2389 23.1893C15.544 23.3674 13.8958 23.6856 12.3789 24.1536" stroke="#222222" stroke-width="1.5" stroke-linecap="round" stroke-linejoin="round"/>
</svg>
