<svg width="32" height="33" viewBox="0 0 32 33" fill="none" xmlns="http://www.w3.org/2000/svg">
<path fill-rule="evenodd" clip-rule="evenodd" d="M20.5756 15.5138C23.2026 17.0303 25.2512 16.0522 26.4018 14.7951C27.585 13.5029 28.065 11.6581 27.9924 9.93919C27.8821 7.30433 27.0544 5.11963 26.8325 4.67725C26.3382 4.70579 24.0316 5.08201 21.6952 6.30279C20.1696 7.10065 18.8125 8.43689 18.2845 10.1078C17.7721 11.7334 17.9485 13.9972 20.5756 15.5138Z" stroke="#F8573D" stroke-width="1.5" stroke-linecap="round" stroke-linejoin="round"/>
<path fill-rule="evenodd" clip-rule="evenodd" d="M13.6453 18.9323C11.7059 21.2636 9.44464 21.056 7.93067 20.2763C6.37257 19.4732 5.28412 17.9087 4.75611 16.2701C3.94788 13.7611 3.96735 11.4246 4.02312 10.9317C4.49665 10.789 6.79032 10.3427 9.40443 10.6787C11.1117 10.8992 12.8488 11.6828 13.9217 13.0671C14.966 14.4149 15.5836 16.5997 13.6453 18.9323Z" stroke="#F8573D" stroke-width="1.5" stroke-linecap="round" stroke-linejoin="round"/>
<path d="M22.1084 12.627C22.1084 12.627 16.1433 17.6931 17.4511 27.9885" stroke="#F8573D" stroke-width="1.5" stroke-linecap="round" stroke-linejoin="round"/>
<path d="M11.1895 16.8813C11.1895 16.8813 16.6252 19.0271 17.2363 24.3409" stroke="#F8573D" stroke-width="1.5" stroke-linecap="round" stroke-linejoin="round"/>
</svg>
